<?xml version="1.0" standalone="no"?>
<!DOCTYPE svg PUBLIC "-//W3C//DTD SVG 20010904//EN"
 "http://www.w3.org/TR/2001/REC-SVG-20010904/DTD/svg10.dtd">
<svg version="1.0" xmlns="http://www.w3.org/2000/svg"
 width="1084.000000pt" height="516.000000pt" viewBox="0 0 1084.000000 516.000000"
 preserveAspectRatio="xMidYMid meet">

<g transform="translate(0.000000,516.000000) scale(0.100000,-0.100000)"
fill="#2596be" stroke="none">
<path d="M8795 4803 c-437 -52 -756 -153 -1047 -334 -354 -219 -653 -573 -813
-963 -82 -200 -142 -444 -166 -681 -15 -149 -6 -501 16 -640 53 -338 168 -646
333 -895 335 -504 825 -809 1492 -927 200 -35 506 -43 700 -18 323 41 639 155
890 323 127 85 390 348 390 390 0 10 -744 572 -759 572 -4 0 -35 -32 -67 -71
-157 -189 -368 -313 -602 -354 -104 -19 -308 -21 -412 -4 -379 59 -733 345
-900 729 -98 225 -143 513 -120 775 32 377 159 672 385 898 181 181 398 295
650 343 132 24 365 15 495 -19 194 -52 327 -123 448 -240 l72 -71 33 24 c17
13 175 140 350 282 228 186 317 265 317 279 0 13 -32 52 -82 101 -285 279
-620 435 -1061 493 -107 14 -451 19 -542 8z"/>
<path d="M5508 4703 l-338 -3 0 -785 c0 -616 -3 -786 -12 -792 -7 -4 -281 -10
-608 -13 l-595 -5 -3 -406 -2 -406 601 -6 c330 -4 605 -10 610 -13 5 -3 9
-382 9 -913 l0 -908 68 -6 c37 -4 246 -7 465 -7 l397 0 -2 2133 -3 2132 -125
0 c-69 0 -277 -1 -462 -2z"/>
<path d="M597 4693 c-4 -3 -7 -956 -7 -2118 0 -1628 3 -2114 12 -2123 19 -19
891 -17 907 2 8 10 10 573 9 2127 l-3 2114 -456 3 c-250 1 -459 -1 -462 -5z"/>
<path d="M2402 2573 l3 -2128 455 0 455 0 3 2128 2 2127 -460 0 -460 0 2
-2127z"/>
</g>
</svg>
