<?xml version="1.0" encoding="UTF-8" standalone="no"?>
<!DOCTYPE svg PUBLIC "-//W3C//DTD SVG 1.1//EN" "http://www.w3.org/Graphics/SVG/1.1/DTD/svg11.dtd">
<svg xmlns="http://www.w3.org/2000/svg" version="1.1" viewBox="0.00 0.00 1024.00 1024.00">
<g stroke-width="2.00" fill="none" stroke-linecap="butt">
<path stroke="#80b5d3" vector-effect="non-scaling-stroke" d="
  M 762.76 380.31
  C 748.01 362.69 726.44 352.60 703.90 349.96
  C 676.08 346.71 645.51 351.76 621.70 366.71
  C 577.97 394.16 563.55 444.74 574.00 494.18
  Q 576.02 503.74 580.14 513.29
  Q 596.55 551.40 634.40 568.54
  C 655.67 578.17 680.34 581.37 703.28 578.69
  Q 716.52 577.13 730.66 571.42
  Q 753.91 562.02 768.30 541.97
  A 0.65 0.65 0.0 0 0 768.16 541.07
  L 728.84 511.67
  A 0.58 0.57 -53.5 0 0 728.02 511.80
  Q 713.13 532.63 688.70 534.63
  C 666.95 536.41 647.87 527.46 634.95 509.64
  C 623.28 493.55 619.48 473.48 621.80 453.52
  C 624.69 428.63 639.32 406.35 663.05 397.46
  C 675.45 392.82 690.15 392.43 702.83 396.23
  Q 716.06 400.19 725.44 410.87
  A 1.11 1.10 49.6 0 0 726.97 411.00
  L 762.61 381.89
  A 1.12 1.12 0.0 0 0 762.76 380.31"
/>
<path stroke="#80b5d3" vector-effect="non-scaling-stroke" d="
  M 255.08 573.60
  A 0.42 0.42 0.0 0 0 255.50 574.02
  L 303.06 574.03
  A 0.42 0.42 0.0 0 0 303.48 573.61
  L 303.48 355.14
  A 0.42 0.42 0.0 0 0 303.06 354.72
  L 255.49 354.58
  A 0.42 0.42 0.0 0 0 255.07 355.00
  L 255.08 573.60"
/>
<path stroke="#80b5d3" vector-effect="non-scaling-stroke" d="
  M 395.74 355.20
  A 0.57 0.57 0.0 0 0 395.17 354.63
  L 348.01 354.63
  A 0.57 0.57 0.0 0 0 347.44 355.20
  L 347.44 573.46
  A 0.57 0.57 0.0 0 0 348.01 574.03
  L 395.17 574.03
  A 0.57 0.57 0.0 0 0 395.74 573.46
  L 395.74 355.20"
/>
<path stroke="#80b5d3" vector-effect="non-scaling-stroke" d="
  M 489.56 480.02
  L 489.59 573.38
  A 0.66 0.66 0.0 0 0 490.25 574.04
  L 537.52 574.02
  A 0.46 0.44 -86.3 0 0 537.96 573.62
  Q 538.17 571.86 538.17 569.96
  Q 538.09 462.42 538.12 355.22
  A 0.59 0.59 0.0 0 0 537.53 354.63
  L 490.49 354.60
  Q 489.57 354.60 489.57 355.51
  L 489.58 435.48
  Q 489.58 436.30 488.77 436.30
  L 427.72 436.31
  Q 427.01 436.31 427.01 437.03
  L 427.02 478.75
  Q 427.02 479.23 427.50 479.23
  L 488.77 479.23
  Q 489.56 479.23 489.56 480.02"
/>
<path stroke="#b8b8b8" vector-effect="non-scaling-stroke" d="
  M 477.4928 621.8990
  A 1.77 0.85 -32.5 0 0 475.5433 622.1331
  A 1.77 0.85 -32.5 0 0 474.5072 623.8010
  A 1.77 0.85 -32.5 0 0 476.4567 623.5669
  A 1.77 0.85 -32.5 0 0 477.4928 621.8990"
/>
<path stroke="#b8b8b8" vector-effect="non-scaling-stroke" d="
  M 499.00 634.02
  Q 495.96 630.06 492.82 626.07
  Q 491.99 625.02 490.69 625.31
  A 0.68 0.68 0.0 0 0 490.17 625.98
  L 490.25 638.21
  Q 490.25 638.93 490.96 638.83
  L 491.69 638.73
  Q 492.37 638.63 492.36 637.94
  L 492.27 630.02
  Q 492.26 628.95 492.93 629.79
  L 499.18 637.62
  Q 501.79 640.89 501.78 636.70
  L 501.73 626.03
  Q 501.73 625.06 500.78 625.21
  L 500.24 625.28
  Q 499.62 625.38 499.62 626.01
  L 499.60 633.81
  Q 499.60 634.80 499.00 634.02"
/>
<path stroke="#b8b8b8" vector-effect="non-scaling-stroke" d="
  M 298.50 625.65
  L 298.48 638.23
  A 0.27 0.27 0.0 0 0 298.75 638.50
  L 303.08 638.51
  A 7.06 6.41 0.1 0 0 310.15 632.11
  L 310.15 631.81
  A 7.06 6.41 0.1 0 0 303.10 625.39
  L 298.77 625.38
  A 0.27 0.27 0.0 0 0 298.50 625.65"
/>
<path stroke="#b8b8b8" vector-effect="non-scaling-stroke" d="
  M 320.7093 625.8584
  A 0.56 0.56 0.0 0 0 320.1484 625.2993
  L 319.3684 625.3007
  A 0.56 0.56 0.0 0 0 318.8093 625.8617
  L 318.8307 638.0816
  A 0.56 0.56 0.0 0 0 319.3916 638.6407
  L 320.1716 638.6393
  A 0.56 0.56 0.0 0 0 320.7307 638.0783
  L 320.7093 625.8584"
/>
<path stroke="#b8b8b8" vector-effect="non-scaling-stroke" d="
  M 353.69 627.77
  A 0.43 0.43 0.0 0 1 354.12 627.34
  L 357.53 627.37
  A 0.43 0.43 0.0 0 0 357.96 627.01
  L 358.16 625.81
  A 0.43 0.43 0.0 0 0 357.74 625.31
  L 347.53 625.28
  A 0.43 0.43 0.0 0 0 347.10 625.73
  L 347.14 627.00
  A 0.43 0.43 0.0 0 0 347.60 627.41
  L 351.04 627.18
  A 0.43 0.43 0.0 0 1 351.50 627.61
  L 351.52 638.21
  A 0.43 0.43 0.0 0 0 351.89 638.64
  L 353.12 638.80
  A 0.43 0.43 0.0 0 0 353.60 638.38
  L 353.69 627.77"
/>
<path stroke="#b8b8b8" vector-effect="non-scaling-stroke" d="
  M 374.41 633.37
  Q 376.59 632.49 376.96 630.23
  C 377.94 624.12 370.10 625.34 366.80 625.28
  Q 366.27 625.27 366.27 625.79
  L 366.27 638.25
  A 0.60 0.59 -6.6 0 0 367.00 638.82
  L 368.01 638.58
  Q 368.48 638.47 368.48 637.99
  L 368.47 634.64
  Q 368.47 634.11 368.98 633.94
  C 371.53 633.05 373.23 636.17 374.37 637.96
  A 1.69 1.68 -16.4 0 0 375.81 638.74
  L 376.60 638.74
  Q 377.56 638.73 376.99 637.95
  L 374.20 634.08
  Q 373.85 633.59 374.41 633.37"
/>
<path stroke="#b8b8b8" vector-effect="non-scaling-stroke" d="
  M 387.96 625.93
  A 0.65 0.65 0.0 0 0 387.31 625.28
  L 386.47 625.28
  A 0.65 0.65 0.0 0 0 385.82 625.93
  L 385.82 638.07
  A 0.65 0.65 0.0 0 0 386.47 638.72
  L 387.31 638.72
  A 0.65 0.65 0.0 0 0 387.96 638.07
  L 387.96 625.93"
/>
<path stroke="#b8b8b8" vector-effect="non-scaling-stroke" d="
  M 406.66 631.05
  C 408.25 629.40 407.95 626.46 405.58 625.80
  Q 402.49 624.94 398.09 625.44
  Q 397.56 625.50 397.55 626.04
  L 397.51 637.78
  Q 397.51 638.39 398.12 638.44
  Q 401.95 638.75 405.10 638.33
  C 408.81 637.83 409.08 634.37 406.67 631.97
  Q 406.21 631.51 406.66 631.05"
/>
<path stroke="#b8b8b8" vector-effect="non-scaling-stroke" d="
  M 421.38 636.54
  Q 419.01 635.80 419.00 633.31
  L 418.98 625.87
  Q 418.97 625.26 418.37 625.26
  L 417.50 625.26
  Q 417.01 625.26 416.99 625.75
  Q 416.84 630.37 417.08 633.77
  Q 417.41 638.37 422.27 638.48
  Q 427.90 638.61 428.00 633.01
  Q 428.06 629.49 428.00 626.01
  Q 427.99 625.27 427.24 625.25
  L 426.78 625.24
  Q 426.03 625.23 426.03 625.97
  L 426.08 632.97
  Q 426.10 636.32 422.77 636.69
  Q 422.08 636.76 421.38 636.54"
/>
<path stroke="#b8b8b8" vector-effect="non-scaling-stroke" d="
  M 458.8992 625.8283
  A 0.52 0.52 0.0 0 0 458.3783 625.3092
  L 457.4583 625.3108
  A 0.52 0.52 0.0 0 0 456.9392 625.8317
  L 456.9608 638.1917
  A 0.52 0.52 0.0 0 0 457.4817 638.7108
  L 458.4017 638.7092
  A 0.52 0.52 0.0 0 0 458.9208 638.1883
  L 458.8992 625.8283"
/>
<path stroke="#b8b8b8" vector-effect="non-scaling-stroke" d="
  M 481.6449 631.7047
  A 6.91 6.61 -2.2 0 0 474.4863 625.3649
  A 6.91 6.61 -2.2 0 0 467.8351 632.2353
  A 6.91 6.61 -2.2 0 0 474.9937 638.5751
  A 6.91 6.61 -2.2 0 0 481.6449 631.7047"
/>
<path stroke="#b8b8b8" vector-effect="non-scaling-stroke" d="
  M 522.28 625.74
  L 522.22 638.12
  A 0.47 0.47 0.0 0 0 522.69 638.59
  L 527.04 638.61
  A 7.08 6.53 0.3 0 0 534.15 632.12
  L 534.15 631.86
  A 7.08 6.53 0.3 0 0 527.10 625.29
  L 522.75 625.27
  A 0.47 0.47 0.0 0 0 522.28 625.74"
/>
<path stroke="#b8b8b8" vector-effect="non-scaling-stroke" d="
  M 545.12 633.19
  A 0.32 0.32 0.0 0 1 545.44 632.88
  L 551.67 632.87
  A 0.32 0.32 0.0 0 0 551.99 632.55
  L 551.99 631.35
  A 0.32 0.32 0.0 0 0 551.67 631.03
  L 545.51 630.99
  A 0.32 0.32 0.0 0 1 545.19 630.70
  L 544.90 627.55
  A 0.32 0.32 0.0 0 1 545.22 627.20
  L 552.41 627.19
  A 0.32 0.32 0.0 0 0 552.72 626.96
  L 552.98 626.01
  A 0.32 0.32 0.0 0 0 552.67 625.61
  L 543.38 625.51
  A 0.32 0.32 0.0 0 0 543.06 625.83
  L 543.08 638.19
  A 0.32 0.32 0.0 0 0 543.40 638.51
  L 552.70 638.51
  A 0.32 0.32 0.0 0 0 553.01 638.12
  L 552.75 637.03
  A 0.32 0.32 0.0 0 0 552.44 636.78
  L 545.31 636.76
  A 0.32 0.32 0.0 0 1 544.99 636.43
  L 545.12 633.19"
/>
<path stroke="#b8b8b8" vector-effect="non-scaling-stroke" d="
  M 592.7493 625.8883
  A 0.60 0.60 0.0 0 0 592.1483 625.2893
  L 591.3483 625.2907
  A 0.60 0.60 0.0 0 0 590.7493 625.8918
  L 590.7707 638.1317
  A 0.60 0.60 0.0 0 0 591.3717 638.7307
  L 592.1717 638.7293
  A 0.60 0.60 0.0 0 0 592.7707 638.1282
  L 592.7493 625.8883"
/>
<path stroke="#b8b8b8" vector-effect="non-scaling-stroke" d="
  M 625.54 627.67
  A 0.41 0.41 0.0 0 1 625.95 627.26
  L 629.58 627.27
  A 0.41 0.41 0.0 0 0 629.99 626.87
  L 630.00 625.78
  A 0.41 0.41 0.0 0 0 629.59 625.36
  L 619.61 625.46
  A 0.41 0.41 0.0 0 0 619.20 625.87
  L 619.20 626.91
  A 0.41 0.41 0.0 0 0 619.62 627.32
  L 623.11 627.19
  A 0.41 0.41 0.0 0 1 623.53 627.60
  L 623.54 638.18
  A 0.41 0.41 0.0 0 0 623.87 638.58
  L 625.04 638.82
  A 0.41 0.41 0.0 0 0 625.53 638.42
  L 625.54 627.67"
/>
<path stroke="#b8b8b8" vector-effect="non-scaling-stroke" d="
  M 640.06 630.96
  A 0.34 0.34 0.0 0 1 639.73 630.62
  L 639.78 627.55
  A 0.34 0.34 0.0 0 1 640.12 627.22
  L 647.31 627.21
  A 0.34 0.34 0.0 0 0 647.64 626.91
  L 647.77 625.76
  A 0.34 0.34 0.0 0 0 647.43 625.38
  L 638.31 625.37
  A 0.34 0.34 0.0 0 0 637.97 625.71
  L 637.98 638.15
  A 0.34 0.34 0.0 0 0 638.32 638.49
  L 647.44 638.50
  A 0.34 0.34 0.0 0 0 647.78 638.15
  L 647.74 637.11
  A 0.34 0.34 0.0 0 0 647.40 636.78
  L 640.07 636.76
  A 0.34 0.34 0.0 0 1 639.73 636.41
  L 639.81 633.11
  A 0.34 0.34 0.0 0 1 640.15 632.78
  L 646.55 632.84
  A 0.34 0.34 0.0 0 0 646.89 632.48
  L 646.84 631.34
  A 0.34 0.34 0.0 0 0 646.51 631.02
  L 640.06 630.96"
/>
<path stroke="#b8b8b8" vector-effect="non-scaling-stroke" d="
  M 659.18 629.59
  L 662.45 634.56
  A 0.62 0.62 0.0 0 0 663.49 634.55
  L 666.77 629.33
  Q 667.28 628.52 667.29 629.48
  L 667.35 638.07
  Q 667.36 638.81 668.07 638.63
  L 668.59 638.50
  Q 669.25 638.34 669.26 637.66
  L 669.29 626.02
  Q 669.30 625.48 668.79 625.33
  Q 667.50 624.94 666.72 626.10
  Q 664.94 628.76 663.31 631.26
  Q 662.93 631.86 662.54 631.26
  Q 660.95 628.79 659.29 626.00
  C 658.78 625.13 657.70 624.95 656.90 625.52
  A 0.89 0.88 -17.7 0 0 656.51 626.27
  L 656.62 638.00
  Q 656.63 638.81 657.43 638.74
  L 657.79 638.70
  A 0.84 0.83 -2.3 0 0 658.55 637.88
  L 658.63 629.75
  Q 658.64 628.77 659.18 629.59"
/>
<path stroke="#b8b8b8" vector-effect="non-scaling-stroke" d="
  M 687.63 636.04
  L 688.23 637.56
  Q 688.58 638.45 689.53 638.62
  L 690.22 638.75
  Q 691.13 638.91 690.74 638.07
  Q 688.08 632.26 685.82 626.72
  Q 685.23 625.29 684.09 625.21
  A 1.09 1.08 14.1 0 0 683.01 625.85
  L 677.71 637.95
  Q 677.45 638.54 678.08 638.69
  L 678.49 638.79
  Q 679.19 638.96 679.51 638.32
  L 680.64 636.05
  Q 680.93 635.47 681.58 635.46
  L 686.62 635.37
  A 1.05 1.05 0.0 0 1 687.63 636.04"
/>
<path stroke="#b8b8b8" vector-effect="non-scaling-stroke" d="
  M 337.30 635.84
  Q 337.15 636.10 336.89 636.26
  Q 335.27 637.28 333.46 636.70
  Q 332.04 636.25 330.70 635.50
  A 0.51 0.50 -63.0 0 0 329.98 635.74
  L 329.88 635.99
  Q 329.57 636.71 330.24 637.12
  C 333.24 638.96 339.58 639.58 339.28 634.24
  C 339.13 631.64 334.73 630.91 332.77 630.38
  A 1.31 1.31 0.0 0 1 331.97 628.45
  C 333.19 626.39 335.80 627.25 337.56 627.99
  Q 338.23 628.27 338.66 627.70
  L 338.85 627.44
  A 0.48 0.48 0.0 0 0 338.75 626.76
  Q 335.87 624.69 332.51 625.76
  C 330.48 626.40 328.98 629.35 330.69 631.11
  C 332.29 632.75 334.59 632.61 336.56 633.50
  Q 338.25 634.25 337.30 635.84"
/>
<path stroke="#b8b8b8" vector-effect="non-scaling-stroke" d="
  M 446.47 635.54
  C 439.56 639.69 435.40 630.95 440.67 627.87
  Q 443.35 626.31 446.53 628.48
  A 0.66 0.65 -58.7 0 0 447.48 628.24
  L 447.60 628.00
  Q 448.07 627.12 447.20 626.64
  Q 442.28 623.88 438.36 627.22
  C 435.27 629.85 435.74 635.37 439.30 637.50
  Q 443.48 640.00 447.95 636.66
  A 0.45 0.45 0.0 0 0 448.02 636.00
  L 447.82 635.76
  Q 447.24 635.08 446.47 635.54"
/>
<path stroke="#b8b8b8" vector-effect="non-scaling-stroke" d="
  M 575.04 627.72
  Q 577.38 626.33 580.37 628.24
  A 0.50 0.50 0.0 0 0 581.05 628.10
  L 581.20 627.87
  Q 581.73 627.10 580.94 626.60
  C 577.84 624.58 571.48 625.05 572.79 630.26
  A 2.58 2.57 -88.8 0 0 574.54 632.09
  L 578.82 633.41
  Q 580.58 633.95 579.89 635.66
  Q 579.75 636.02 579.44 636.19
  Q 577.75 637.17 575.98 636.62
  Q 574.63 636.21 573.35 635.46
  A 0.75 0.74 38.6 0 0 572.47 635.55
  Q 572.24 635.75 572.24 636.06
  Q 572.24 636.66 572.74 636.98
  C 574.94 638.42 578.60 639.38 580.76 637.45
  C 582.80 635.63 582.36 632.72 579.66 631.73
  Q 577.52 630.95 575.35 630.29
  A 1.41 1.41 0.0 0 1 575.04 627.72"
/>
<path stroke="#b8b8b8" vector-effect="non-scaling-stroke" d="
  M 608.70 636.29
  Q 606.14 637.62 602.89 635.45
  A 0.67 0.66 30.6 0 0 601.93 635.69
  L 601.79 635.96
  Q 601.41 636.69 602.12 637.11
  C 605.23 638.96 611.42 639.73 611.36 634.40
  C 611.32 631.61 606.74 630.88 604.77 630.28
  A 1.37 1.37 0.0 0 1 604.23 627.97
  C 605.76 626.53 607.92 627.39 609.62 628.01
  Q 610.32 628.27 610.68 627.61
  Q 611.07 626.91 610.37 626.52
  Q 608.16 625.24 605.66 625.49
  C 601.75 625.87 600.26 630.69 604.44 632.24
  Q 606.20 632.90 608.04 633.30
  Q 609.15 633.55 609.44 634.62
  A 1.45 1.44 -21.3 0 1 608.70 636.29"
/>
<path stroke="#b8b8b8" vector-effect="non-scaling-stroke" d="
  M 701.68 627.65
  Q 703.97 626.43 706.85 628.26
  A 0.51 0.51 0.0 0 0 707.61 627.98
  L 707.69 627.71
  Q 707.92 626.94 707.23 626.53
  C 704.55 624.95 699.99 624.81 699.07 628.53
  C 698.19 632.09 703.38 632.88 705.60 633.49
  A 1.46 1.46 0.0 0 1 706.09 636.06
  C 704.16 637.53 701.89 636.73 699.82 635.37
  A 0.56 0.56 0.0 0 0 699.05 635.52
  L 698.88 635.77
  Q 698.37 636.52 699.13 637.00
  C 702.17 638.93 708.80 639.79 708.29 634.19
  C 708.05 631.66 703.93 630.97 701.97 630.42
  A 1.50 1.50 0.0 0 1 701.68 627.65"
/>
<path stroke="#b8b8b8" vector-effect="non-scaling-stroke" d="
  M 428.19 660.71
  Q 428.19 659.25 429.02 660.46
  Q 432.28 665.16 435.65 668.81
  Q 437.61 670.94 437.62 668.04
  L 437.66 656.71
  Q 437.67 656.00 436.96 656.04
  L 436.09 656.08
  Q 435.49 656.11 435.50 656.71
  L 435.63 664.74
  Q 435.64 665.63 435.06 664.96
  Q 432.59 662.11 430.04 658.44
  Q 429.12 657.11 427.90 656.16
  A 1.12 1.12 0.0 0 0 426.09 657.06
  L 426.18 668.93
  A 0.55 0.54 2.4 0 0 426.67 669.46
  L 427.17 669.50
  Q 428.18 669.60 428.18 668.58
  L 428.19 660.71"
/>
<path stroke="#b8b8b8" vector-effect="non-scaling-stroke" d="
  M 467.60 658.00
  A 0.41 0.41 0.0 0 1 468.01 658.41
  L 468.03 669.07
  A 0.41 0.41 0.0 0 0 468.40 669.48
  L 469.57 669.60
  A 0.41 0.41 0.0 0 0 470.02 669.19
  L 470.11 658.45
  A 0.41 0.41 0.0 0 1 470.51 658.04
  L 474.26 657.95
  A 0.41 0.41 0.0 0 0 474.66 657.53
  L 474.64 656.52
  A 0.41 0.41 0.0 0 0 474.23 656.12
  L 464.09 656.11
  A 0.41 0.41 0.0 0 0 463.69 656.54
  L 463.75 657.62
  A 0.41 0.41 0.0 0 0 464.16 658.01
  L 467.60 658.00"
/>
<path stroke="#b8b8b8" vector-effect="non-scaling-stroke" d="
  M 490.41 664.10
  Q 493.39 662.80 493.06 659.77
  Q 492.71 656.51 489.45 656.21
  Q 486.61 655.95 483.53 656.02
  Q 482.30 656.05 482.31 657.28
  L 482.48 668.70
  Q 482.49 669.55 483.33 669.48
  Q 483.54 669.47 483.74 669.48
  Q 484.49 669.51 484.49 668.76
  L 484.48 665.47
  A 0.89 0.89 0.0 0 1 485.15 664.61
  C 488.27 663.80 489.01 667.03 490.55 668.79
  Q 491.26 669.60 492.34 669.53
  L 492.72 669.51
  Q 493.60 669.45 493.08 668.73
  L 490.22 664.79
  Q 489.88 664.33 490.41 664.10"
/>
<path stroke="#b8b8b8" vector-effect="non-scaling-stroke" d="
  M 507.32 667.29
  Q 503.98 667.08 503.96 663.74
  L 503.92 656.71
  A 0.70 0.70 0.0 0 0 503.21 656.02
  L 502.30 656.03
  Q 501.74 656.03 501.75 656.59
  C 501.89 661.08 500.01 670.19 507.93 669.40
  Q 512.73 668.92 512.91 664.27
  Q 513.05 660.50 512.98 656.54
  Q 512.97 656.03 512.46 656.02
  L 511.54 656.01
  Q 510.82 656.00 510.82 656.72
  L 510.79 664.23
  Q 510.78 666.85 508.19 667.25
  Q 507.76 667.32 507.32 667.29"
/>
<path stroke="#b8b8b8" vector-effect="non-scaling-stroke" d="
  M 561.9893 656.5883
  A 0.60 0.60 0.0 0 0 561.3882 655.9893
  L 560.6082 655.9907
  A 0.60 0.60 0.0 0 0 560.0093 656.5917
  L 560.0307 668.8717
  A 0.60 0.60 0.0 0 0 560.6318 669.4707
  L 561.4118 669.4693
  A 0.60 0.60 0.0 0 0 562.0107 668.8683
  L 561.9893 656.5883"
/>
<path stroke="#b8b8b8" vector-effect="non-scaling-stroke" d="
  M 576.41 665.30
  L 573.14 656.84
  A 1.29 1.27 79.2 0 0 571.95 656.02
  L 571.19 656.02
  Q 570.35 656.02 570.66 656.81
  Q 572.88 662.41 575.34 668.15
  Q 575.83 669.28 576.75 669.54
  A 0.97 0.96 18.7 0 0 577.90 668.98
  L 582.97 656.72
  Q 583.27 655.97 582.46 656.00
  L 581.77 656.02
  A 1.26 1.25 -80.2 0 0 580.63 656.83
  L 577.35 665.30
  Q 576.88 666.52 576.41 665.30"
/>
<path stroke="#b8b8b8" vector-effect="non-scaling-stroke" d="
  M 386.92 660.51
  Q 389.37 656.29 394.16 659.02
  A 1.15 0.99 60.4 0 0 394.47 659.13
  Q 396.23 659.40 395.65 657.83
  A 0.90 0.89 -86.5 0 0 395.22 657.34
  Q 390.13 654.75 386.44 657.95
  C 383.54 660.47 383.65 665.82 387.05 667.99
  Q 391.26 670.69 395.59 667.71
  Q 396.11 667.36 396.08 666.74
  A 0.71 0.71 0.0 0 0 395.13 666.10
  Q 394.01 666.50 392.94 667.03
  C 388.94 669.02 384.76 664.22 386.92 660.51"
/>
<path stroke="#b8b8b8" vector-effect="non-scaling-stroke" d="
  M 417.5523 662.4140
  A 6.92 6.59 -2.7 0 0 410.3296 656.1573
  A 6.92 6.59 -2.7 0 0 403.7277 663.0660
  A 6.92 6.59 -2.7 0 0 410.9504 669.3227
  A 6.92 6.59 -2.7 0 0 417.5523 662.4140"
/>
<path stroke="#b8b8b8" vector-effect="non-scaling-stroke" d="
  M 448.54 659.04
  Q 449.62 657.60 451.34 657.93
  Q 452.85 658.21 454.40 659.05
  A 0.34 0.34 0.0 0 0 454.83 658.97
  L 455.13 658.62
  Q 455.74 657.89 454.95 657.37
  C 451.97 655.42 446.07 655.62 446.58 660.49
  Q 446.81 662.64 449.04 663.11
  Q 451.38 663.60 453.40 664.57
  Q 454.66 665.18 453.97 666.39
  Q 453.85 666.59 453.66 666.74
  Q 452.05 667.96 450.22 667.39
  Q 448.67 666.90 447.06 666.16
  A 0.39 0.38 26.9 0 0 446.57 666.31
  L 446.35 666.70
  A 0.80 0.79 31.1 0 0 446.62 667.77
  C 449.67 669.67 455.54 670.44 455.91 665.50
  A 3.01 3.00 10.1 0 0 453.73 662.39
  L 449.69 661.24
  Q 448.31 660.85 448.40 659.42
  Q 448.42 659.21 448.54 659.04"
/>
<path stroke="#b8b8b8" vector-effect="non-scaling-stroke" d="
  M 531.99 659.35
  A 0.62 0.62 0.0 0 0 532.95 659.00
  L 533.07 658.55
  Q 533.28 657.72 532.52 657.34
  C 527.22 654.74 520.65 657.22 521.71 663.74
  C 522.61 669.28 528.51 670.65 532.86 667.77
  A 1.01 1.00 -27.4 0 0 533.25 666.57
  L 533.15 666.29
  Q 532.99 665.87 532.58 666.06
  Q 530.61 666.97 528.85 667.31
  C 523.88 668.27 522.07 661.76 525.50 659.01
  Q 528.33 656.74 531.99 659.35"
/>
<path stroke="#b8b8b8" vector-effect="non-scaling-stroke" d="
  M 544.90 657.92
  A 0.34 0.34 0.0 0 1 545.25 658.26
  L 545.19 669.03
  A 0.34 0.34 0.0 0 0 545.56 669.37
  L 546.83 669.25
  A 0.34 0.34 0.0 0 0 547.14 668.91
  L 547.09 658.33
  A 0.34 0.34 0.0 0 1 547.43 657.99
  L 551.27 657.96
  A 0.34 0.34 0.0 0 0 551.60 657.66
  L 551.71 656.61
  A 0.34 0.34 0.0 0 0 551.37 656.23
  L 541.08 656.23
  A 0.34 0.34 0.0 0 0 540.74 656.59
  L 540.79 657.70
  A 0.34 0.34 0.0 0 0 541.13 658.02
  L 544.90 657.92"
/>
<path stroke="#b8b8b8" vector-effect="non-scaling-stroke" d="
  M 603.7800 662.7059
  A 6.91 6.64 -0.2 0 0 596.8468 656.0900
  A 6.91 6.64 -0.2 0 0 589.9600 662.7541
  A 6.91 6.64 -0.2 0 0 596.8932 669.3700
  A 6.91 6.64 -0.2 0 0 603.7800 662.7059"
/>
<path stroke="#b8b8b8" vector-effect="non-scaling-stroke" d="
  M 614.01 658.91
  Q 615.20 657.45 616.52 657.84
  L 619.95 658.88
  A 0.53 0.53 0.0 0 0 620.57 658.61
  L 620.75 658.24
  Q 621.08 657.56 620.41 657.24
  C 617.74 655.94 613.07 655.38 612.06 659.04
  C 610.88 663.26 616.33 663.27 618.66 664.36
  A 1.48 1.48 0.0 0 1 618.82 666.96
  Q 616.58 668.36 612.31 666.16
  A 0.35 0.34 -61.1 0 0 611.85 666.30
  L 611.70 666.55
  A 0.83 0.83 0.0 0 0 611.97 667.67
  Q 615.83 670.12 619.19 668.73
  C 622.39 667.40 621.72 663.06 618.47 662.24
  Q 616.36 661.70 614.41 660.85
  Q 613.40 660.41 613.76 659.36
  Q 613.85 659.11 614.01 658.91"
/>
<path stroke="#b8b8b8" vector-effect="non-scaling-stroke" d="
  M 300.28 628.27
  L 300.26 635.65
  A 1.13 1.13 0.0 0 0 301.38 636.78
  L 303.10 636.79
  A 4.95 4.73 0.2 0 0 308.07 632.07
  L 308.07 631.89
  A 4.95 4.73 0.2 0 0 303.14 627.15
  L 301.42 627.14
  A 1.13 1.13 0.0 0 0 300.28 628.27"
/>
<path stroke="#b8b8b8" vector-effect="non-scaling-stroke" d="
  M 368.48 627.93
  L 368.44 631.21
  A 0.62 0.62 0.0 0 0 369.06 631.83
  L 372.29 631.87
  A 2.39 2.14 0.6 0 0 374.70 629.75
  L 374.70 629.51
  A 2.39 2.14 0.6 0 0 372.33 627.35
  L 369.10 627.31
  A 0.62 0.62 0.0 0 0 368.48 627.93"
/>
<path stroke="#b8b8b8" vector-effect="non-scaling-stroke" d="
  M 399.50 627.90
  L 399.48 630.16
  A 0.80 0.80 0.0 0 0 400.27 630.97
  L 403.17 631.01
  A 2.60 1.80 0.7 0 0 405.79 629.24
  L 405.79 628.98
  A 2.60 1.80 0.7 0 0 403.21 627.15
  L 400.31 627.11
  A 0.80 0.80 0.0 0 0 399.50 627.90"
/>
<path stroke="#b8b8b8" vector-effect="non-scaling-stroke" d="
  M 399.51 633.56
  L 399.51 635.94
  A 0.84 0.84 0.0 0 0 400.35 636.79
  L 403.71 636.79
  A 2.62 1.92 0.1 0 0 406.33 634.88
  L 406.33 634.66
  A 2.62 1.92 0.1 0 0 403.71 632.73
  L 400.35 632.73
  A 0.84 0.84 0.0 0 0 399.51 633.56"
/>
<path stroke="#b8b8b8" vector-effect="non-scaling-stroke" d="
  M 479.51 631.97
  A 4.78 4.78 0.0 0 0 474.73 627.19
  A 4.78 4.78 0.0 0 0 469.95 631.97
  A 4.78 4.78 0.0 0 0 474.73 636.75
  A 4.78 4.78 0.0 0 0 479.51 631.97"
/>
<path stroke="#b8b8b8" vector-effect="non-scaling-stroke" d="
  M 524.30 627.93
  L 524.28 635.97
  A 0.67 0.67 0.0 0 0 524.95 636.64
  L 527.13 636.65
  A 4.79 4.60 0.1 0 0 531.93 632.06
  L 531.93 631.88
  A 4.79 4.60 0.1 0 0 527.15 627.27
  L 524.97 627.26
  A 0.67 0.67 0.0 0 0 524.30 627.93"
/>
<path stroke="#b8b8b8" vector-effect="non-scaling-stroke" d="
  M 681.78 633.23
  A 0.31 0.31 0.0 0 0 682.06 633.66
  L 686.18 633.71
  A 0.31 0.31 0.0 0 0 686.47 633.28
  L 684.46 628.22
  A 0.31 0.31 0.0 0 0 683.89 628.22
  L 681.78 633.23"
/>
<path stroke="#b8b8b8" vector-effect="non-scaling-stroke" d="
  M 484.49 658.83
  L 484.47 661.85
  A 0.85 0.85 0.0 0 0 485.31 662.70
  L 487.77 662.72
  A 3.11 2.26 0.4 0 0 490.90 660.48
  L 490.90 660.28
  A 3.11 2.26 0.4 0 0 487.81 658.00
  L 485.35 657.98
  A 0.85 0.85 0.0 0 0 484.49 658.83"
/>
<path stroke="#b8b8b8" vector-effect="non-scaling-stroke" d="
  M 415.41 662.70
  A 4.77 4.77 0.0 0 0 410.64 657.93
  A 4.77 4.77 0.0 0 0 405.87 662.70
  A 4.77 4.77 0.0 0 0 410.64 667.47
  A 4.77 4.77 0.0 0 0 415.41 662.70"
/>
<path stroke="#b8b8b8" vector-effect="non-scaling-stroke" d="
  M 601.65 662.69
  A 4.73 4.73 0.0 0 0 596.92 657.96
  A 4.73 4.73 0.0 0 0 592.19 662.69
  A 4.73 4.73 0.0 0 0 596.92 667.42
  A 4.73 4.73 0.0 0 0 601.65 662.69"
/>
</g>
<path fill="#ffffff" d="
  M 0.00 0.00
  L 1024.00 0.00
  L 1024.00 1024.00
  L 0.00 1024.00
  L 0.00 0.00
  Z
  M 762.76 380.31
  C 748.01 362.69 726.44 352.60 703.90 349.96
  C 676.08 346.71 645.51 351.76 621.70 366.71
  C 577.97 394.16 563.55 444.74 574.00 494.18
  Q 576.02 503.74 580.14 513.29
  Q 596.55 551.40 634.40 568.54
  C 655.67 578.17 680.34 581.37 703.28 578.69
  Q 716.52 577.13 730.66 571.42
  Q 753.91 562.02 768.30 541.97
  A 0.65 0.65 0.0 0 0 768.16 541.07
  L 728.84 511.67
  A 0.58 0.57 -53.5 0 0 728.02 511.80
  Q 713.13 532.63 688.70 534.63
  C 666.95 536.41 647.87 527.46 634.95 509.64
  C 623.28 493.55 619.48 473.48 621.80 453.52
  C 624.69 428.63 639.32 406.35 663.05 397.46
  C 675.45 392.82 690.15 392.43 702.83 396.23
  Q 716.06 400.19 725.44 410.87
  A 1.11 1.10 49.6 0 0 726.97 411.00
  L 762.61 381.89
  A 1.12 1.12 0.0 0 0 762.76 380.31
  Z
  M 255.08 573.60
  A 0.42 0.42 0.0 0 0 255.50 574.02
  L 303.06 574.03
  A 0.42 0.42 0.0 0 0 303.48 573.61
  L 303.48 355.14
  A 0.42 0.42 0.0 0 0 303.06 354.72
  L 255.49 354.58
  A 0.42 0.42 0.0 0 0 255.07 355.00
  L 255.08 573.60
  Z
  M 395.74 355.20
  A 0.57 0.57 0.0 0 0 395.17 354.63
  L 348.01 354.63
  A 0.57 0.57 0.0 0 0 347.44 355.20
  L 347.44 573.46
  A 0.57 0.57 0.0 0 0 348.01 574.03
  L 395.17 574.03
  A 0.57 0.57 0.0 0 0 395.74 573.46
  L 395.74 355.20
  Z
  M 489.56 480.02
  L 489.59 573.38
  A 0.66 0.66 0.0 0 0 490.25 574.04
  L 537.52 574.02
  A 0.46 0.44 -86.3 0 0 537.96 573.62
  Q 538.17 571.86 538.17 569.96
  Q 538.09 462.42 538.12 355.22
  A 0.59 0.59 0.0 0 0 537.53 354.63
  L 490.49 354.60
  Q 489.57 354.60 489.57 355.51
  L 489.58 435.48
  Q 489.58 436.30 488.77 436.30
  L 427.72 436.31
  Q 427.01 436.31 427.01 437.03
  L 427.02 478.75
  Q 427.02 479.23 427.50 479.23
  L 488.77 479.23
  Q 489.56 479.23 489.56 480.02
  Z
  M 477.4928 621.8990
  A 1.77 0.85 -32.5 0 0 475.5433 622.1331
  A 1.77 0.85 -32.5 0 0 474.5072 623.8010
  A 1.77 0.85 -32.5 0 0 476.4567 623.5669
  A 1.77 0.85 -32.5 0 0 477.4928 621.8990
  Z
  M 499.00 634.02
  Q 495.96 630.06 492.82 626.07
  Q 491.99 625.02 490.69 625.31
  A 0.68 0.68 0.0 0 0 490.17 625.98
  L 490.25 638.21
  Q 490.25 638.93 490.96 638.83
  L 491.69 638.73
  Q 492.37 638.63 492.36 637.94
  L 492.27 630.02
  Q 492.26 628.95 492.93 629.79
  L 499.18 637.62
  Q 501.79 640.89 501.78 636.70
  L 501.73 626.03
  Q 501.73 625.06 500.78 625.21
  L 500.24 625.28
  Q 499.62 625.38 499.62 626.01
  L 499.60 633.81
  Q 499.60 634.80 499.00 634.02
  Z
  M 298.50 625.65
  L 298.48 638.23
  A 0.27 0.27 0.0 0 0 298.75 638.50
  L 303.08 638.51
  A 7.06 6.41 0.1 0 0 310.15 632.11
  L 310.15 631.81
  A 7.06 6.41 0.1 0 0 303.10 625.39
  L 298.77 625.38
  A 0.27 0.27 0.0 0 0 298.50 625.65
  Z
  M 320.7093 625.8584
  A 0.56 0.56 0.0 0 0 320.1484 625.2993
  L 319.3684 625.3007
  A 0.56 0.56 0.0 0 0 318.8093 625.8617
  L 318.8307 638.0816
  A 0.56 0.56 0.0 0 0 319.3916 638.6407
  L 320.1716 638.6393
  A 0.56 0.56 0.0 0 0 320.7307 638.0783
  L 320.7093 625.8584
  Z
  M 353.69 627.77
  A 0.43 0.43 0.0 0 1 354.12 627.34
  L 357.53 627.37
  A 0.43 0.43 0.0 0 0 357.96 627.01
  L 358.16 625.81
  A 0.43 0.43 0.0 0 0 357.74 625.31
  L 347.53 625.28
  A 0.43 0.43 0.0 0 0 347.10 625.73
  L 347.14 627.00
  A 0.43 0.43 0.0 0 0 347.60 627.41
  L 351.04 627.18
  A 0.43 0.43 0.0 0 1 351.50 627.61
  L 351.52 638.21
  A 0.43 0.43 0.0 0 0 351.89 638.64
  L 353.12 638.80
  A 0.43 0.43 0.0 0 0 353.60 638.38
  L 353.69 627.77
  Z
  M 374.41 633.37
  Q 376.59 632.49 376.96 630.23
  C 377.94 624.12 370.10 625.34 366.80 625.28
  Q 366.27 625.27 366.27 625.79
  L 366.27 638.25
  A 0.60 0.59 -6.6 0 0 367.00 638.82
  L 368.01 638.58
  Q 368.48 638.47 368.48 637.99
  L 368.47 634.64
  Q 368.47 634.11 368.98 633.94
  C 371.53 633.05 373.23 636.17 374.37 637.96
  A 1.69 1.68 -16.4 0 0 375.81 638.74
  L 376.60 638.74
  Q 377.56 638.73 376.99 637.95
  L 374.20 634.08
  Q 373.85 633.59 374.41 633.37
  Z
  M 387.96 625.93
  A 0.65 0.65 0.0 0 0 387.31 625.28
  L 386.47 625.28
  A 0.65 0.65 0.0 0 0 385.82 625.93
  L 385.82 638.07
  A 0.65 0.65 0.0 0 0 386.47 638.72
  L 387.31 638.72
  A 0.65 0.65 0.0 0 0 387.96 638.07
  L 387.96 625.93
  Z
  M 406.66 631.05
  C 408.25 629.40 407.95 626.46 405.58 625.80
  Q 402.49 624.94 398.09 625.44
  Q 397.56 625.50 397.55 626.04
  L 397.51 637.78
  Q 397.51 638.39 398.12 638.44
  Q 401.95 638.75 405.10 638.33
  C 408.81 637.83 409.08 634.37 406.67 631.97
  Q 406.21 631.51 406.66 631.05
  Z
  M 421.38 636.54
  Q 419.01 635.80 419.00 633.31
  L 418.98 625.87
  Q 418.97 625.26 418.37 625.26
  L 417.50 625.26
  Q 417.01 625.26 416.99 625.75
  Q 416.84 630.37 417.08 633.77
  Q 417.41 638.37 422.27 638.48
  Q 427.90 638.61 428.00 633.01
  Q 428.06 629.49 428.00 626.01
  Q 427.99 625.27 427.24 625.25
  L 426.78 625.24
  Q 426.03 625.23 426.03 625.97
  L 426.08 632.97
  Q 426.10 636.32 422.77 636.69
  Q 422.08 636.76 421.38 636.54
  Z
  M 458.8992 625.8283
  A 0.52 0.52 0.0 0 0 458.3783 625.3092
  L 457.4583 625.3108
  A 0.52 0.52 0.0 0 0 456.9392 625.8317
  L 456.9608 638.1917
  A 0.52 0.52 0.0 0 0 457.4817 638.7108
  L 458.4017 638.7092
  A 0.52 0.52 0.0 0 0 458.9208 638.1883
  L 458.8992 625.8283
  Z
  M 481.6449 631.7047
  A 6.91 6.61 -2.2 0 0 474.4863 625.3649
  A 6.91 6.61 -2.2 0 0 467.8351 632.2353
  A 6.91 6.61 -2.2 0 0 474.9937 638.5751
  A 6.91 6.61 -2.2 0 0 481.6449 631.7047
  Z
  M 522.28 625.74
  L 522.22 638.12
  A 0.47 0.47 0.0 0 0 522.69 638.59
  L 527.04 638.61
  A 7.08 6.53 0.3 0 0 534.15 632.12
  L 534.15 631.86
  A 7.08 6.53 0.3 0 0 527.10 625.29
  L 522.75 625.27
  A 0.47 0.47 0.0 0 0 522.28 625.74
  Z
  M 545.12 633.19
  A 0.32 0.32 0.0 0 1 545.44 632.88
  L 551.67 632.87
  A 0.32 0.32 0.0 0 0 551.99 632.55
  L 551.99 631.35
  A 0.32 0.32 0.0 0 0 551.67 631.03
  L 545.51 630.99
  A 0.32 0.32 0.0 0 1 545.19 630.70
  L 544.90 627.55
  A 0.32 0.32 0.0 0 1 545.22 627.20
  L 552.41 627.19
  A 0.32 0.32 0.0 0 0 552.72 626.96
  L 552.98 626.01
  A 0.32 0.32 0.0 0 0 552.67 625.61
  L 543.38 625.51
  A 0.32 0.32 0.0 0 0 543.06 625.83
  L 543.08 638.19
  A 0.32 0.32 0.0 0 0 543.40 638.51
  L 552.70 638.51
  A 0.32 0.32 0.0 0 0 553.01 638.12
  L 552.75 637.03
  A 0.32 0.32 0.0 0 0 552.44 636.78
  L 545.31 636.76
  A 0.32 0.32 0.0 0 1 544.99 636.43
  L 545.12 633.19
  Z
  M 592.7493 625.8883
  A 0.60 0.60 0.0 0 0 592.1483 625.2893
  L 591.3483 625.2907
  A 0.60 0.60 0.0 0 0 590.7493 625.8918
  L 590.7707 638.1317
  A 0.60 0.60 0.0 0 0 591.3717 638.7307
  L 592.1717 638.7293
  A 0.60 0.60 0.0 0 0 592.7707 638.1282
  L 592.7493 625.8883
  Z
  M 625.54 627.67
  A 0.41 0.41 0.0 0 1 625.95 627.26
  L 629.58 627.27
  A 0.41 0.41 0.0 0 0 629.99 626.87
  L 630.00 625.78
  A 0.41 0.41 0.0 0 0 629.59 625.36
  L 619.61 625.46
  A 0.41 0.41 0.0 0 0 619.20 625.87
  L 619.20 626.91
  A 0.41 0.41 0.0 0 0 619.62 627.32
  L 623.11 627.19
  A 0.41 0.41 0.0 0 1 623.53 627.60
  L 623.54 638.18
  A 0.41 0.41 0.0 0 0 623.87 638.58
  L 625.04 638.82
  A 0.41 0.41 0.0 0 0 625.53 638.42
  L 625.54 627.67
  Z
  M 640.06 630.96
  A 0.34 0.34 0.0 0 1 639.73 630.62
  L 639.78 627.55
  A 0.34 0.34 0.0 0 1 640.12 627.22
  L 647.31 627.21
  A 0.34 0.34 0.0 0 0 647.64 626.91
  L 647.77 625.76
  A 0.34 0.34 0.0 0 0 647.43 625.38
  L 638.31 625.37
  A 0.34 0.34 0.0 0 0 637.97 625.71
  L 637.98 638.15
  A 0.34 0.34 0.0 0 0 638.32 638.49
  L 647.44 638.50
  A 0.34 0.34 0.0 0 0 647.78 638.15
  L 647.74 637.11
  A 0.34 0.34 0.0 0 0 647.40 636.78
  L 640.07 636.76
  A 0.34 0.34 0.0 0 1 639.73 636.41
  L 639.81 633.11
  A 0.34 0.34 0.0 0 1 640.15 632.78
  L 646.55 632.84
  A 0.34 0.34 0.0 0 0 646.89 632.48
  L 646.84 631.34
  A 0.34 0.34 0.0 0 0 646.51 631.02
  L 640.06 630.96
  Z
  M 659.18 629.59
  L 662.45 634.56
  A 0.62 0.62 0.0 0 0 663.49 634.55
  L 666.77 629.33
  Q 667.28 628.52 667.29 629.48
  L 667.35 638.07
  Q 667.36 638.81 668.07 638.63
  L 668.59 638.50
  Q 669.25 638.34 669.26 637.66
  L 669.29 626.02
  Q 669.30 625.48 668.79 625.33
  Q 667.50 624.94 666.72 626.10
  Q 664.94 628.76 663.31 631.26
  Q 662.93 631.86 662.54 631.26
  Q 660.95 628.79 659.29 626.00
  C 658.78 625.13 657.70 624.95 656.90 625.52
  A 0.89 0.88 -17.7 0 0 656.51 626.27
  L 656.62 638.00
  Q 656.63 638.81 657.43 638.74
  L 657.79 638.70
  A 0.84 0.83 -2.3 0 0 658.55 637.88
  L 658.63 629.75
  Q 658.64 628.77 659.18 629.59
  Z
  M 687.63 636.04
  L 688.23 637.56
  Q 688.58 638.45 689.53 638.62
  L 690.22 638.75
  Q 691.13 638.91 690.74 638.07
  Q 688.08 632.26 685.82 626.72
  Q 685.23 625.29 684.09 625.21
  A 1.09 1.08 14.1 0 0 683.01 625.85
  L 677.71 637.95
  Q 677.45 638.54 678.08 638.69
  L 678.49 638.79
  Q 679.19 638.96 679.51 638.32
  L 680.64 636.05
  Q 680.93 635.47 681.58 635.46
  L 686.62 635.37
  A 1.05 1.05 0.0 0 1 687.63 636.04
  Z
  M 337.30 635.84
  Q 337.15 636.10 336.89 636.26
  Q 335.27 637.28 333.46 636.70
  Q 332.04 636.25 330.70 635.50
  A 0.51 0.50 -63.0 0 0 329.98 635.74
  L 329.88 635.99
  Q 329.57 636.71 330.24 637.12
  C 333.24 638.96 339.58 639.58 339.28 634.24
  C 339.13 631.64 334.73 630.91 332.77 630.38
  A 1.31 1.31 0.0 0 1 331.97 628.45
  C 333.19 626.39 335.80 627.25 337.56 627.99
  Q 338.23 628.27 338.66 627.70
  L 338.85 627.44
  A 0.48 0.48 0.0 0 0 338.75 626.76
  Q 335.87 624.69 332.51 625.76
  C 330.48 626.40 328.98 629.35 330.69 631.11
  C 332.29 632.75 334.59 632.61 336.56 633.50
  Q 338.25 634.25 337.30 635.84
  Z
  M 446.47 635.54
  C 439.56 639.69 435.40 630.95 440.67 627.87
  Q 443.35 626.31 446.53 628.48
  A 0.66 0.65 -58.7 0 0 447.48 628.24
  L 447.60 628.00
  Q 448.07 627.12 447.20 626.64
  Q 442.28 623.88 438.36 627.22
  C 435.27 629.85 435.74 635.37 439.30 637.50
  Q 443.48 640.00 447.95 636.66
  A 0.45 0.45 0.0 0 0 448.02 636.00
  L 447.82 635.76
  Q 447.24 635.08 446.47 635.54
  Z
  M 575.04 627.72
  Q 577.38 626.33 580.37 628.24
  A 0.50 0.50 0.0 0 0 581.05 628.10
  L 581.20 627.87
  Q 581.73 627.10 580.94 626.60
  C 577.84 624.58 571.48 625.05 572.79 630.26
  A 2.58 2.57 -88.8 0 0 574.54 632.09
  L 578.82 633.41
  Q 580.58 633.95 579.89 635.66
  Q 579.75 636.02 579.44 636.19
  Q 577.75 637.17 575.98 636.62
  Q 574.63 636.21 573.35 635.46
  A 0.75 0.74 38.6 0 0 572.47 635.55
  Q 572.24 635.75 572.24 636.06
  Q 572.24 636.66 572.74 636.98
  C 574.94 638.42 578.60 639.38 580.76 637.45
  C 582.80 635.63 582.36 632.72 579.66 631.73
  Q 577.52 630.95 575.35 630.29
  A 1.41 1.41 0.0 0 1 575.04 627.72
  Z
  M 608.70 636.29
  Q 606.14 637.62 602.89 635.45
  A 0.67 0.66 30.6 0 0 601.93 635.69
  L 601.79 635.96
  Q 601.41 636.69 602.12 637.11
  C 605.23 638.96 611.42 639.73 611.36 634.40
  C 611.32 631.61 606.74 630.88 604.77 630.28
  A 1.37 1.37 0.0 0 1 604.23 627.97
  C 605.76 626.53 607.92 627.39 609.62 628.01
  Q 610.32 628.27 610.68 627.61
  Q 611.07 626.91 610.37 626.52
  Q 608.16 625.24 605.66 625.49
  C 601.75 625.87 600.26 630.69 604.44 632.24
  Q 606.20 632.90 608.04 633.30
  Q 609.15 633.55 609.44 634.62
  A 1.45 1.44 -21.3 0 1 608.70 636.29
  Z
  M 701.68 627.65
  Q 703.97 626.43 706.85 628.26
  A 0.51 0.51 0.0 0 0 707.61 627.98
  L 707.69 627.71
  Q 707.92 626.94 707.23 626.53
  C 704.55 624.95 699.99 624.81 699.07 628.53
  C 698.19 632.09 703.38 632.88 705.60 633.49
  A 1.46 1.46 0.0 0 1 706.09 636.06
  C 704.16 637.53 701.89 636.73 699.82 635.37
  A 0.56 0.56 0.0 0 0 699.05 635.52
  L 698.88 635.77
  Q 698.37 636.52 699.13 637.00
  C 702.17 638.93 708.80 639.79 708.29 634.19
  C 708.05 631.66 703.93 630.97 701.97 630.42
  A 1.50 1.50 0.0 0 1 701.68 627.65
  Z
  M 428.19 660.71
  Q 428.19 659.25 429.02 660.46
  Q 432.28 665.16 435.65 668.81
  Q 437.61 670.94 437.62 668.04
  L 437.66 656.71
  Q 437.67 656.00 436.96 656.04
  L 436.09 656.08
  Q 435.49 656.11 435.50 656.71
  L 435.63 664.74
  Q 435.64 665.63 435.06 664.96
  Q 432.59 662.11 430.04 658.44
  Q 429.12 657.11 427.90 656.16
  A 1.12 1.12 0.0 0 0 426.09 657.06
  L 426.18 668.93
  A 0.55 0.54 2.4 0 0 426.67 669.46
  L 427.17 669.50
  Q 428.18 669.60 428.18 668.58
  L 428.19 660.71
  Z
  M 467.60 658.00
  A 0.41 0.41 0.0 0 1 468.01 658.41
  L 468.03 669.07
  A 0.41 0.41 0.0 0 0 468.40 669.48
  L 469.57 669.60
  A 0.41 0.41 0.0 0 0 470.02 669.19
  L 470.11 658.45
  A 0.41 0.41 0.0 0 1 470.51 658.04
  L 474.26 657.95
  A 0.41 0.41 0.0 0 0 474.66 657.53
  L 474.64 656.52
  A 0.41 0.41 0.0 0 0 474.23 656.12
  L 464.09 656.11
  A 0.41 0.41 0.0 0 0 463.69 656.54
  L 463.75 657.62
  A 0.41 0.41 0.0 0 0 464.16 658.01
  L 467.60 658.00
  Z
  M 490.41 664.10
  Q 493.39 662.80 493.06 659.77
  Q 492.71 656.51 489.45 656.21
  Q 486.61 655.95 483.53 656.02
  Q 482.30 656.05 482.31 657.28
  L 482.48 668.70
  Q 482.49 669.55 483.33 669.48
  Q 483.54 669.47 483.74 669.48
  Q 484.49 669.51 484.49 668.76
  L 484.48 665.47
  A 0.89 0.89 0.0 0 1 485.15 664.61
  C 488.27 663.80 489.01 667.03 490.55 668.79
  Q 491.26 669.60 492.34 669.53
  L 492.72 669.51
  Q 493.60 669.45 493.08 668.73
  L 490.22 664.79
  Q 489.88 664.33 490.41 664.10
  Z
  M 507.32 667.29
  Q 503.98 667.08 503.96 663.74
  L 503.92 656.71
  A 0.70 0.70 0.0 0 0 503.21 656.02
  L 502.30 656.03
  Q 501.74 656.03 501.75 656.59
  C 501.89 661.08 500.01 670.19 507.93 669.40
  Q 512.73 668.92 512.91 664.27
  Q 513.05 660.50 512.98 656.54
  Q 512.97 656.03 512.46 656.02
  L 511.54 656.01
  Q 510.82 656.00 510.82 656.72
  L 510.79 664.23
  Q 510.78 666.85 508.19 667.25
  Q 507.76 667.32 507.32 667.29
  Z
  M 561.9893 656.5883
  A 0.60 0.60 0.0 0 0 561.3882 655.9893
  L 560.6082 655.9907
  A 0.60 0.60 0.0 0 0 560.0093 656.5917
  L 560.0307 668.8717
  A 0.60 0.60 0.0 0 0 560.6318 669.4707
  L 561.4118 669.4693
  A 0.60 0.60 0.0 0 0 562.0107 668.8683
  L 561.9893 656.5883
  Z
  M 576.41 665.30
  L 573.14 656.84
  A 1.29 1.27 79.2 0 0 571.95 656.02
  L 571.19 656.02
  Q 570.35 656.02 570.66 656.81
  Q 572.88 662.41 575.34 668.15
  Q 575.83 669.28 576.75 669.54
  A 0.97 0.96 18.7 0 0 577.90 668.98
  L 582.97 656.72
  Q 583.27 655.97 582.46 656.00
  L 581.77 656.02
  A 1.26 1.25 -80.2 0 0 580.63 656.83
  L 577.35 665.30
  Q 576.88 666.52 576.41 665.30
  Z
  M 386.92 660.51
  Q 389.37 656.29 394.16 659.02
  A 1.15 0.99 60.4 0 0 394.47 659.13
  Q 396.23 659.40 395.65 657.83
  A 0.90 0.89 -86.5 0 0 395.22 657.34
  Q 390.13 654.75 386.44 657.95
  C 383.54 660.47 383.65 665.82 387.05 667.99
  Q 391.26 670.69 395.59 667.71
  Q 396.11 667.36 396.08 666.74
  A 0.71 0.71 0.0 0 0 395.13 666.10
  Q 394.01 666.50 392.94 667.03
  C 388.94 669.02 384.76 664.22 386.92 660.51
  Z
  M 417.5523 662.4140
  A 6.92 6.59 -2.7 0 0 410.3296 656.1573
  A 6.92 6.59 -2.7 0 0 403.7277 663.0660
  A 6.92 6.59 -2.7 0 0 410.9504 669.3227
  A 6.92 6.59 -2.7 0 0 417.5523 662.4140
  Z
  M 448.54 659.04
  Q 449.62 657.60 451.34 657.93
  Q 452.85 658.21 454.40 659.05
  A 0.34 0.34 0.0 0 0 454.83 658.97
  L 455.13 658.62
  Q 455.74 657.89 454.95 657.37
  C 451.97 655.42 446.07 655.62 446.58 660.49
  Q 446.81 662.64 449.04 663.11
  Q 451.38 663.60 453.40 664.57
  Q 454.66 665.18 453.97 666.39
  Q 453.85 666.59 453.66 666.74
  Q 452.05 667.96 450.22 667.39
  Q 448.67 666.90 447.06 666.16
  A 0.39 0.38 26.9 0 0 446.57 666.31
  L 446.35 666.70
  A 0.80 0.79 31.1 0 0 446.62 667.77
  C 449.67 669.67 455.54 670.44 455.91 665.50
  A 3.01 3.00 10.1 0 0 453.73 662.39
  L 449.69 661.24
  Q 448.31 660.85 448.40 659.42
  Q 448.42 659.21 448.54 659.04
  Z
  M 531.99 659.35
  A 0.62 0.62 0.0 0 0 532.95 659.00
  L 533.07 658.55
  Q 533.28 657.72 532.52 657.34
  C 527.22 654.74 520.65 657.22 521.71 663.74
  C 522.61 669.28 528.51 670.65 532.86 667.77
  A 1.01 1.00 -27.4 0 0 533.25 666.57
  L 533.15 666.29
  Q 532.99 665.87 532.58 666.06
  Q 530.61 666.97 528.85 667.31
  C 523.88 668.27 522.07 661.76 525.50 659.01
  Q 528.33 656.74 531.99 659.35
  Z
  M 544.90 657.92
  A 0.34 0.34 0.0 0 1 545.25 658.26
  L 545.19 669.03
  A 0.34 0.34 0.0 0 0 545.56 669.37
  L 546.83 669.25
  A 0.34 0.34 0.0 0 0 547.14 668.91
  L 547.09 658.33
  A 0.34 0.34 0.0 0 1 547.43 657.99
  L 551.27 657.96
  A 0.34 0.34 0.0 0 0 551.60 657.66
  L 551.71 656.61
  A 0.34 0.34 0.0 0 0 551.37 656.23
  L 541.08 656.23
  A 0.34 0.34 0.0 0 0 540.74 656.59
  L 540.79 657.70
  A 0.34 0.34 0.0 0 0 541.13 658.02
  L 544.90 657.92
  Z
  M 603.7800 662.7059
  A 6.91 6.64 -0.2 0 0 596.8468 656.0900
  A 6.91 6.64 -0.2 0 0 589.9600 662.7541
  A 6.91 6.64 -0.2 0 0 596.8932 669.3700
  A 6.91 6.64 -0.2 0 0 603.7800 662.7059
  Z
  M 614.01 658.91
  Q 615.20 657.45 616.52 657.84
  L 619.95 658.88
  A 0.53 0.53 0.0 0 0 620.57 658.61
  L 620.75 658.24
  Q 621.08 657.56 620.41 657.24
  C 617.74 655.94 613.07 655.38 612.06 659.04
  C 610.88 663.26 616.33 663.27 618.66 664.36
  A 1.48 1.48 0.0 0 1 618.82 666.96
  Q 616.58 668.36 612.31 666.16
  A 0.35 0.34 -61.1 0 0 611.85 666.30
  L 611.70 666.55
  A 0.83 0.83 0.0 0 0 611.97 667.67
  Q 615.83 670.12 619.19 668.73
  C 622.39 667.40 621.72 663.06 618.47 662.24
  Q 616.36 661.70 614.41 660.85
  Q 613.40 660.41 613.76 659.36
  Q 613.85 659.11 614.01 658.91
  Z"
/>
<path fill="#006aa6" d="
  M 703.90 349.96
  C 726.44 352.60 748.01 362.69 762.76 380.31
  A 1.12 1.12 0.0 0 1 762.61 381.89
  L 726.97 411.00
  A 1.11 1.10 49.6 0 1 725.44 410.87
  Q 716.06 400.19 702.83 396.23
  C 690.15 392.43 675.45 392.82 663.05 397.46
  C 639.32 406.35 624.69 428.63 621.80 453.52
  C 619.48 473.48 623.28 493.55 634.95 509.64
  C 647.87 527.46 666.95 536.41 688.70 534.63
  Q 713.13 532.63 728.02 511.80
  A 0.58 0.57 -53.5 0 1 728.84 511.67
  L 768.16 541.07
  A 0.65 0.65 0.0 0 1 768.30 541.97
  Q 753.91 562.02 730.66 571.42
  Q 716.52 577.13 703.28 578.69
  C 680.34 581.37 655.67 578.17 634.40 568.54
  Q 596.55 551.40 580.14 513.29
  Q 576.02 503.74 574.00 494.18
  C 563.55 444.74 577.97 394.16 621.70 366.71
  C 645.51 351.76 676.08 346.71 703.90 349.96
  Z"
/>
<path fill="#006aa6" d="
  M 255.08 573.60
  L 255.07 355.00
  A 0.42 0.42 0.0 0 1 255.49 354.58
  L 303.06 354.72
  A 0.42 0.42 0.0 0 1 303.48 355.14
  L 303.48 573.61
  A 0.42 0.42 0.0 0 1 303.06 574.03
  L 255.50 574.02
  A 0.42 0.42 0.0 0 1 255.08 573.60
  Z"
/>
<rect fill="#006aa6" x="347.44" y="354.63" width="48.30" height="219.40" rx="0.57"/>
<path fill="#006aa6" d="
  M 488.77 479.23
  L 427.50 479.23
  Q 427.02 479.23 427.02 478.75
  L 427.01 437.03
  Q 427.01 436.31 427.72 436.31
  L 488.77 436.30
  Q 489.58 436.30 489.58 435.48
  L 489.57 355.51
  Q 489.57 354.60 490.49 354.60
  L 537.53 354.63
  A 0.59 0.59 0.0 0 1 538.12 355.22
  Q 538.09 462.42 538.17 569.96
  Q 538.17 571.86 537.96 573.62
  A 0.46 0.44 -86.3 0 1 537.52 574.02
  L 490.25 574.04
  A 0.66 0.66 0.0 0 1 489.59 573.38
  L 489.56 480.02
  Q 489.56 479.23 488.77 479.23
  Z"
/>
<ellipse fill="#707070" cx="0.00" cy="0.00" transform="translate(476.00,622.85) rotate(-32.5)" rx="1.77" ry="0.85"/>
<path fill="#707070" d="
  M 499.60 633.81
  L 499.62 626.01
  Q 499.62 625.38 500.24 625.28
  L 500.78 625.21
  Q 501.73 625.06 501.73 626.03
  L 501.78 636.70
  Q 501.79 640.89 499.18 637.62
  L 492.93 629.79
  Q 492.26 628.95 492.27 630.02
  L 492.36 637.94
  Q 492.37 638.63 491.69 638.73
  L 490.96 638.83
  Q 490.25 638.93 490.25 638.21
  L 490.17 625.98
  A 0.68 0.68 0.0 0 1 490.69 625.31
  Q 491.99 625.02 492.82 626.07
  Q 495.96 630.06 499.00 634.02
  Q 499.60 634.80 499.60 633.81
  Z"
/>
<path fill="#707070" d="
  M 298.50 625.65
  A 0.27 0.27 0.0 0 1 298.77 625.38
  L 303.10 625.39
  A 7.06 6.41 0.1 0 1 310.15 631.81
  L 310.15 632.11
  A 7.06 6.41 0.1 0 1 303.08 638.51
  L 298.75 638.50
  A 0.27 0.27 0.0 0 1 298.48 638.23
  L 298.50 625.65
  Z
  M 300.28 628.27
  L 300.26 635.65
  A 1.13 1.13 0.0 0 0 301.38 636.78
  L 303.10 636.79
  A 4.95 4.73 0.2 0 0 308.07 632.07
  L 308.07 631.89
  A 4.95 4.73 0.2 0 0 303.14 627.15
  L 301.42 627.14
  A 1.13 1.13 0.0 0 0 300.28 628.27
  Z"
/>
<rect fill="#707070" x="-0.95" y="-6.67" transform="translate(319.77,631.97) rotate(-0.1)" width="1.90" height="13.34" rx="0.56"/>
<path fill="#707070" d="
  M 353.69 627.77
  L 353.60 638.38
  A 0.43 0.43 0.0 0 1 353.12 638.80
  L 351.89 638.64
  A 0.43 0.43 0.0 0 1 351.52 638.21
  L 351.50 627.61
  A 0.43 0.43 0.0 0 0 351.04 627.18
  L 347.60 627.41
  A 0.43 0.43 0.0 0 1 347.14 627.00
  L 347.10 625.73
  A 0.43 0.43 0.0 0 1 347.53 625.28
  L 357.74 625.31
  A 0.43 0.43 0.0 0 1 358.16 625.81
  L 357.96 627.01
  A 0.43 0.43 0.0 0 1 357.53 627.37
  L 354.12 627.34
  A 0.43 0.43 0.0 0 0 353.69 627.77
  Z"
/>
<path fill="#707070" d="
  M 374.20 634.08
  L 376.99 637.95
  Q 377.56 638.73 376.60 638.74
  L 375.81 638.74
  A 1.69 1.68 -16.4 0 1 374.37 637.96
  C 373.23 636.17 371.53 633.05 368.98 633.94
  Q 368.47 634.11 368.47 634.64
  L 368.48 637.99
  Q 368.48 638.47 368.01 638.58
  L 367.00 638.82
  A 0.60 0.59 -6.6 0 1 366.27 638.25
  L 366.27 625.79
  Q 366.27 625.27 366.80 625.28
  C 370.10 625.34 377.94 624.12 376.96 630.23
  Q 376.59 632.49 374.41 633.37
  Q 373.85 633.59 374.20 634.08
  Z
  M 368.48 627.93
  L 368.44 631.21
  A 0.62 0.62 0.0 0 0 369.06 631.83
  L 372.29 631.87
  A 2.39 2.14 0.6 0 0 374.70 629.75
  L 374.70 629.51
  A 2.39 2.14 0.6 0 0 372.33 627.35
  L 369.10 627.31
  A 0.62 0.62 0.0 0 0 368.48 627.93
  Z"
/>
<rect fill="#707070" x="385.82" y="625.28" width="2.14" height="13.44" rx="0.65"/>
<path fill="#707070" d="
  M 406.67 631.97
  C 409.08 634.37 408.81 637.83 405.10 638.33
  Q 401.95 638.75 398.12 638.44
  Q 397.51 638.39 397.51 637.78
  L 397.55 626.04
  Q 397.56 625.50 398.09 625.44
  Q 402.49 624.94 405.58 625.80
  C 407.95 626.46 408.25 629.40 406.66 631.05
  Q 406.21 631.51 406.67 631.97
  Z
  M 399.50 627.90
  L 399.48 630.16
  A 0.80 0.80 0.0 0 0 400.27 630.97
  L 403.17 631.01
  A 2.60 1.80 0.7 0 0 405.79 629.24
  L 405.79 628.98
  A 2.60 1.80 0.7 0 0 403.21 627.15
  L 400.31 627.11
  A 0.80 0.80 0.0 0 0 399.50 627.90
  Z
  M 399.51 633.56
  L 399.51 635.94
  A 0.84 0.84 0.0 0 0 400.35 636.79
  L 403.71 636.79
  A 2.62 1.92 0.1 0 0 406.33 634.88
  L 406.33 634.66
  A 2.62 1.92 0.1 0 0 403.71 632.73
  L 400.35 632.73
  A 0.84 0.84 0.0 0 0 399.51 633.56
  Z"
/>
<path fill="#707070" d="
  M 421.38 636.54
  Q 422.08 636.76 422.77 636.69
  Q 426.10 636.32 426.08 632.97
  L 426.03 625.97
  Q 426.03 625.23 426.78 625.24
  L 427.24 625.25
  Q 427.99 625.27 428.00 626.01
  Q 428.06 629.49 428.00 633.01
  Q 427.90 638.61 422.27 638.48
  Q 417.41 638.37 417.08 633.77
  Q 416.84 630.37 416.99 625.75
  Q 417.01 625.26 417.50 625.26
  L 418.37 625.26
  Q 418.97 625.26 418.98 625.87
  L 419.00 633.31
  Q 419.01 635.80 421.38 636.54
  Z"
/>
<rect fill="#707070" x="-0.98" y="-6.70" transform="translate(457.93,632.01) rotate(-0.1)" width="1.96" height="13.40" rx="0.52"/>
<path fill="#707070" d="
  M 481.6449 631.7047
  A 6.91 6.61 -2.2 0 1 474.9937 638.5751
  A 6.91 6.61 -2.2 0 1 467.8351 632.2353
  A 6.91 6.61 -2.2 0 1 474.4863 625.3649
  A 6.91 6.61 -2.2 0 1 481.6449 631.7047
  Z
  M 479.51 631.97
  A 4.78 4.78 0.0 0 0 474.73 627.19
  A 4.78 4.78 0.0 0 0 469.95 631.97
  A 4.78 4.78 0.0 0 0 474.73 636.75
  A 4.78 4.78 0.0 0 0 479.51 631.97
  Z"
/>
<path fill="#707070" d="
  M 522.28 625.74
  A 0.47 0.47 0.0 0 1 522.75 625.27
  L 527.10 625.29
  A 7.08 6.53 0.3 0 1 534.15 631.86
  L 534.15 632.12
  A 7.08 6.53 0.3 0 1 527.04 638.61
  L 522.69 638.59
  A 0.47 0.47 0.0 0 1 522.22 638.12
  L 522.28 625.74
  Z
  M 524.30 627.93
  L 524.28 635.97
  A 0.67 0.67 0.0 0 0 524.95 636.64
  L 527.13 636.65
  A 4.79 4.60 0.1 0 0 531.93 632.06
  L 531.93 631.88
  A 4.79 4.60 0.1 0 0 527.15 627.27
  L 524.97 627.26
  A 0.67 0.67 0.0 0 0 524.30 627.93
  Z"
/>
<path fill="#707070" d="
  M 545.12 633.19
  L 544.99 636.43
  A 0.32 0.32 0.0 0 0 545.31 636.76
  L 552.44 636.78
  A 0.32 0.32 0.0 0 1 552.75 637.03
  L 553.01 638.12
  A 0.32 0.32 0.0 0 1 552.70 638.51
  L 543.40 638.51
  A 0.32 0.32 0.0 0 1 543.08 638.19
  L 543.06 625.83
  A 0.32 0.32 0.0 0 1 543.38 625.51
  L 552.67 625.61
  A 0.32 0.32 0.0 0 1 552.98 626.01
  L 552.72 626.96
  A 0.32 0.32 0.0 0 1 552.41 627.19
  L 545.22 627.20
  A 0.32 0.32 0.0 0 0 544.90 627.55
  L 545.19 630.70
  A 0.32 0.32 0.0 0 0 545.51 630.99
  L 551.67 631.03
  A 0.32 0.32 0.0 0 1 551.99 631.35
  L 551.99 632.55
  A 0.32 0.32 0.0 0 1 551.67 632.87
  L 545.44 632.88
  A 0.32 0.32 0.0 0 0 545.12 633.19
  Z"
/>
<rect fill="#707070" x="-1.00" y="-6.72" transform="translate(591.76,632.01) rotate(-0.1)" width="2.00" height="13.44" rx="0.60"/>
<path fill="#707070" d="
  M 625.54 627.67
  L 625.53 638.42
  A 0.41 0.41 0.0 0 1 625.04 638.82
  L 623.87 638.58
  A 0.41 0.41 0.0 0 1 623.54 638.18
  L 623.53 627.60
  A 0.41 0.41 0.0 0 0 623.11 627.19
  L 619.62 627.32
  A 0.41 0.41 0.0 0 1 619.20 626.91
  L 619.20 625.87
  A 0.41 0.41 0.0 0 1 619.61 625.46
  L 629.59 625.36
  A 0.41 0.41 0.0 0 1 630.00 625.78
  L 629.99 626.87
  A 0.41 0.41 0.0 0 1 629.58 627.27
  L 625.95 627.26
  A 0.41 0.41 0.0 0 0 625.54 627.67
  Z"
/>
<path fill="#707070" d="
  M 640.06 630.96
  L 646.51 631.02
  A 0.34 0.34 0.0 0 1 646.84 631.34
  L 646.89 632.48
  A 0.34 0.34 0.0 0 1 646.55 632.84
  L 640.15 632.78
  A 0.34 0.34 0.0 0 0 639.81 633.11
  L 639.73 636.41
  A 0.34 0.34 0.0 0 0 640.07 636.76
  L 647.40 636.78
  A 0.34 0.34 0.0 0 1 647.74 637.11
  L 647.78 638.15
  A 0.34 0.34 0.0 0 1 647.44 638.50
  L 638.32 638.49
  A 0.34 0.34 0.0 0 1 637.98 638.15
  L 637.97 625.71
  A 0.34 0.34 0.0 0 1 638.31 625.37
  L 647.43 625.38
  A 0.34 0.34 0.0 0 1 647.77 625.76
  L 647.64 626.91
  A 0.34 0.34 0.0 0 1 647.31 627.21
  L 640.12 627.22
  A 0.34 0.34 0.0 0 0 639.78 627.55
  L 639.73 630.62
  A 0.34 0.34 0.0 0 0 640.06 630.96
  Z"
/>
<path fill="#707070" d="
  M 658.63 629.75
  L 658.55 637.88
  A 0.84 0.83 -2.3 0 1 657.79 638.70
  L 657.43 638.74
  Q 656.63 638.81 656.62 638.00
  L 656.51 626.27
  A 0.89 0.88 -17.7 0 1 656.90 625.52
  C 657.70 624.95 658.78 625.13 659.29 626.00
  Q 660.95 628.79 662.54 631.26
  Q 662.93 631.86 663.31 631.26
  Q 664.94 628.76 666.72 626.10
  Q 667.50 624.94 668.79 625.33
  Q 669.30 625.48 669.29 626.02
  L 669.26 637.66
  Q 669.25 638.34 668.59 638.50
  L 668.07 638.63
  Q 667.36 638.81 667.35 638.07
  L 667.29 629.48
  Q 667.28 628.52 666.77 629.33
  L 663.49 634.55
  A 0.62 0.62 0.0 0 1 662.45 634.56
  L 659.18 629.59
  Q 658.64 628.77 658.63 629.75
  Z"
/>
<path fill="#707070" d="
  M 686.62 635.37
  L 681.58 635.46
  Q 680.93 635.47 680.64 636.05
  L 679.51 638.32
  Q 679.19 638.96 678.49 638.79
  L 678.08 638.69
  Q 677.45 638.54 677.71 637.95
  L 683.01 625.85
  A 1.09 1.08 14.1 0 1 684.09 625.21
  Q 685.23 625.29 685.82 626.72
  Q 688.08 632.26 690.74 638.07
  Q 691.13 638.91 690.22 638.75
  L 689.53 638.62
  Q 688.58 638.45 688.23 637.56
  L 687.63 636.04
  A 1.05 1.05 0.0 0 0 686.62 635.37
  Z
  M 681.78 633.23
  A 0.31 0.31 0.0 0 0 682.06 633.66
  L 686.18 633.71
  A 0.31 0.31 0.0 0 0 686.47 633.28
  L 684.46 628.22
  A 0.31 0.31 0.0 0 0 683.89 628.22
  L 681.78 633.23
  Z"
/>
<path fill="#707070" d="
  M 336.56 633.50
  C 334.59 632.61 332.29 632.75 330.69 631.11
  C 328.98 629.35 330.48 626.40 332.51 625.76
  Q 335.87 624.69 338.75 626.76
  A 0.48 0.48 0.0 0 1 338.85 627.44
  L 338.66 627.70
  Q 338.23 628.27 337.56 627.99
  C 335.80 627.25 333.19 626.39 331.97 628.45
  A 1.31 1.31 0.0 0 0 332.77 630.38
  C 334.73 630.91 339.13 631.64 339.28 634.24
  C 339.58 639.58 333.24 638.96 330.24 637.12
  Q 329.57 636.71 329.88 635.99
  L 329.98 635.74
  A 0.51 0.50 -63.0 0 1 330.70 635.50
  Q 332.04 636.25 333.46 636.70
  Q 335.27 637.28 336.89 636.26
  Q 337.15 636.10 337.30 635.84
  Q 338.25 634.25 336.56 633.50
  Z"
/>
<path fill="#707070" d="
  M 440.67 627.87
  C 435.40 630.95 439.56 639.69 446.47 635.54
  Q 447.24 635.08 447.82 635.76
  L 448.02 636.00
  A 0.45 0.45 0.0 0 1 447.95 636.66
  Q 443.48 640.00 439.30 637.50
  C 435.74 635.37 435.27 629.85 438.36 627.22
  Q 442.28 623.88 447.20 626.64
  Q 448.07 627.12 447.60 628.00
  L 447.48 628.24
  A 0.66 0.65 -58.7 0 1 446.53 628.48
  Q 443.35 626.31 440.67 627.87
  Z"
/>
<path fill="#707070" d="
  M 575.04 627.72
  A 1.41 1.41 0.0 0 0 575.35 630.29
  Q 577.52 630.95 579.66 631.73
  C 582.36 632.72 582.80 635.63 580.76 637.45
  C 578.60 639.38 574.94 638.42 572.74 636.98
  Q 572.24 636.66 572.24 636.06
  Q 572.24 635.75 572.47 635.55
  A 0.75 0.74 38.6 0 1 573.35 635.46
  Q 574.63 636.21 575.98 636.62
  Q 577.75 637.17 579.44 636.19
  Q 579.75 636.02 579.89 635.66
  Q 580.58 633.95 578.82 633.41
  L 574.54 632.09
  A 2.58 2.57 -88.8 0 1 572.79 630.26
  C 571.48 625.05 577.84 624.58 580.94 626.60
  Q 581.73 627.10 581.20 627.87
  L 581.05 628.10
  A 0.50 0.50 0.0 0 1 580.37 628.24
  Q 577.38 626.33 575.04 627.72
  Z"
/>
<path fill="#707070" d="
  M 608.70 636.29
  A 1.45 1.44 -21.3 0 0 609.44 634.62
  Q 609.15 633.55 608.04 633.30
  Q 606.20 632.90 604.44 632.24
  C 600.26 630.69 601.75 625.87 605.66 625.49
  Q 608.16 625.24 610.37 626.52
  Q 611.07 626.91 610.68 627.61
  Q 610.32 628.27 609.62 628.01
  C 607.92 627.39 605.76 626.53 604.23 627.97
  A 1.37 1.37 0.0 0 0 604.77 630.28
  C 606.74 630.88 611.32 631.61 611.36 634.40
  C 611.42 639.73 605.23 638.96 602.12 637.11
  Q 601.41 636.69 601.79 635.96
  L 601.93 635.69
  A 0.67 0.66 30.6 0 1 602.89 635.45
  Q 606.14 637.62 608.70 636.29
  Z"
/>
<path fill="#707070" d="
  M 701.68 627.65
  A 1.50 1.50 0.0 0 0 701.97 630.42
  C 703.93 630.97 708.05 631.66 708.29 634.19
  C 708.80 639.79 702.17 638.93 699.13 637.00
  Q 698.37 636.52 698.88 635.77
  L 699.05 635.52
  A 0.56 0.56 0.0 0 1 699.82 635.37
  C 701.89 636.73 704.16 637.53 706.09 636.06
  A 1.46 1.46 0.0 0 0 705.60 633.49
  C 703.38 632.88 698.19 632.09 699.07 628.53
  C 699.99 624.81 704.55 624.95 707.23 626.53
  Q 707.92 626.94 707.69 627.71
  L 707.61 627.98
  A 0.51 0.51 0.0 0 1 706.85 628.26
  Q 703.97 626.43 701.68 627.65
  Z"
/>
<path fill="#ffffff" d="
  M 300.28 628.27
  A 1.13 1.13 0.0 0 1 301.42 627.14
  L 303.14 627.15
  A 4.95 4.73 0.2 0 1 308.07 631.89
  L 308.07 632.07
  A 4.95 4.73 0.2 0 1 303.10 636.79
  L 301.38 636.78
  A 1.13 1.13 0.0 0 1 300.26 635.65
  L 300.28 628.27
  Z"
/>
<path fill="#ffffff" d="
  M 399.50 627.90
  A 0.80 0.80 0.0 0 1 400.31 627.11
  L 403.21 627.15
  A 2.60 1.80 0.7 0 1 405.79 628.98
  L 405.79 629.24
  A 2.60 1.80 0.7 0 1 403.17 631.01
  L 400.27 630.97
  A 0.80 0.80 0.0 0 1 399.48 630.16
  L 399.50 627.90
  Z"
/>
<path fill="#ffffff" d="
  M 368.48 627.93
  A 0.62 0.62 0.0 0 1 369.10 627.31
  L 372.33 627.35
  A 2.39 2.14 0.6 0 1 374.70 629.51
  L 374.70 629.75
  A 2.39 2.14 0.6 0 1 372.29 631.87
  L 369.06 631.83
  A 0.62 0.62 0.0 0 1 368.44 631.21
  L 368.48 627.93
  Z"
/>
<circle fill="#ffffff" cx="474.73" cy="631.97" r="4.78"/>
<path fill="#ffffff" d="
  M 524.30 627.93
  A 0.67 0.67 0.0 0 1 524.97 627.26
  L 527.15 627.27
  A 4.79 4.60 0.1 0 1 531.93 631.88
  L 531.93 632.06
  A 4.79 4.60 0.1 0 1 527.13 636.65
  L 524.95 636.64
  A 0.67 0.67 0.0 0 1 524.28 635.97
  L 524.30 627.93
  Z"
/>
<path fill="#ffffff" d="
  M 681.78 633.23
  L 683.89 628.22
  A 0.31 0.31 0.0 0 1 684.46 628.22
  L 686.47 633.28
  A 0.31 0.31 0.0 0 1 686.18 633.71
  L 682.06 633.66
  A 0.31 0.31 0.0 0 1 681.78 633.23
  Z"
/>
<path fill="#ffffff" d="
  M 399.51 633.56
  A 0.84 0.84 0.0 0 1 400.35 632.73
  L 403.71 632.73
  A 2.62 1.92 0.1 0 1 406.33 634.66
  L 406.33 634.88
  A 2.62 1.92 0.1 0 1 403.71 636.79
  L 400.35 636.79
  A 0.84 0.84 0.0 0 1 399.51 635.94
  L 399.51 633.56
  Z"
/>
<path fill="#707070" d="
  M 428.19 660.71
  L 428.18 668.58
  Q 428.18 669.60 427.17 669.50
  L 426.67 669.46
  A 0.55 0.54 2.4 0 1 426.18 668.93
  L 426.09 657.06
  A 1.12 1.12 0.0 0 1 427.90 656.16
  Q 429.12 657.11 430.04 658.44
  Q 432.59 662.11 435.06 664.96
  Q 435.64 665.63 435.63 664.74
  L 435.50 656.71
  Q 435.49 656.11 436.09 656.08
  L 436.96 656.04
  Q 437.67 656.00 437.66 656.71
  L 437.62 668.04
  Q 437.61 670.94 435.65 668.81
  Q 432.28 665.16 429.02 660.46
  Q 428.19 659.25 428.19 660.71
  Z"
/>
<path fill="#707070" d="
  M 467.60 658.00
  L 464.16 658.01
  A 0.41 0.41 0.0 0 1 463.75 657.62
  L 463.69 656.54
  A 0.41 0.41 0.0 0 1 464.09 656.11
  L 474.23 656.12
  A 0.41 0.41 0.0 0 1 474.64 656.52
  L 474.66 657.53
  A 0.41 0.41 0.0 0 1 474.26 657.95
  L 470.51 658.04
  A 0.41 0.41 0.0 0 0 470.11 658.45
  L 470.02 669.19
  A 0.41 0.41 0.0 0 1 469.57 669.60
  L 468.40 669.48
  A 0.41 0.41 0.0 0 1 468.03 669.07
  L 468.01 658.41
  A 0.41 0.41 0.0 0 0 467.60 658.00
  Z"
/>
<path fill="#707070" d="
  M 490.22 664.79
  L 493.08 668.73
  Q 493.60 669.45 492.72 669.51
  L 492.34 669.53
  Q 491.26 669.60 490.55 668.79
  C 489.01 667.03 488.27 663.80 485.15 664.61
  A 0.89 0.89 0.0 0 0 484.48 665.47
  L 484.49 668.76
  Q 484.49 669.51 483.74 669.48
  Q 483.54 669.47 483.33 669.48
  Q 482.49 669.55 482.48 668.70
  L 482.31 657.28
  Q 482.30 656.05 483.53 656.02
  Q 486.61 655.95 489.45 656.21
  Q 492.71 656.51 493.06 659.77
  Q 493.39 662.80 490.41 664.10
  Q 489.88 664.33 490.22 664.79
  Z
  M 484.49 658.83
  L 484.47 661.85
  A 0.85 0.85 0.0 0 0 485.31 662.70
  L 487.77 662.72
  A 3.11 2.26 0.4 0 0 490.90 660.48
  L 490.90 660.28
  A 3.11 2.26 0.4 0 0 487.81 658.00
  L 485.35 657.98
  A 0.85 0.85 0.0 0 0 484.49 658.83
  Z"
/>
<path fill="#707070" d="
  M 507.32 667.29
  Q 507.76 667.32 508.19 667.25
  Q 510.78 666.85 510.79 664.23
  L 510.82 656.72
  Q 510.82 656.00 511.54 656.01
  L 512.46 656.02
  Q 512.97 656.03 512.98 656.54
  Q 513.05 660.50 512.91 664.27
  Q 512.73 668.92 507.93 669.40
  C 500.01 670.19 501.89 661.08 501.75 656.59
  Q 501.74 656.03 502.30 656.03
  L 503.21 656.02
  A 0.70 0.70 0.0 0 1 503.92 656.71
  L 503.96 663.74
  Q 503.98 667.08 507.32 667.29
  Z"
/>
<rect fill="#707070" x="-0.99" y="-6.74" transform="translate(561.01,662.73) rotate(-0.1)" width="1.98" height="13.48" rx="0.60"/>
<path fill="#707070" d="
  M 576.41 665.30
  Q 576.88 666.52 577.35 665.30
  L 580.63 656.83
  A 1.26 1.25 -80.2 0 1 581.77 656.02
  L 582.46 656.00
  Q 583.27 655.97 582.97 656.72
  L 577.90 668.98
  A 0.97 0.96 18.7 0 1 576.75 669.54
  Q 575.83 669.28 575.34 668.15
  Q 572.88 662.41 570.66 656.81
  Q 570.35 656.02 571.19 656.02
  L 571.95 656.02
  A 1.29 1.27 79.2 0 1 573.14 656.84
  L 576.41 665.30
  Z"
/>
<path fill="#707070" d="
  M 386.92 660.51
  C 384.76 664.22 388.94 669.02 392.94 667.03
  Q 394.01 666.50 395.13 666.10
  A 0.71 0.71 0.0 0 1 396.08 666.74
  Q 396.11 667.36 395.59 667.71
  Q 391.26 670.69 387.05 667.99
  C 383.65 665.82 383.54 660.47 386.44 657.95
  Q 390.13 654.75 395.22 657.34
  A 0.90 0.89 -86.5 0 1 395.65 657.83
  Q 396.23 659.40 394.47 659.13
  A 1.15 0.99 60.4 0 1 394.16 659.02
  Q 389.37 656.29 386.92 660.51
  Z"
/>
<path fill="#707070" d="
  M 417.5523 662.4140
  A 6.92 6.59 -2.7 0 1 410.9504 669.3227
  A 6.92 6.59 -2.7 0 1 403.7277 663.0660
  A 6.92 6.59 -2.7 0 1 410.3296 656.1573
  A 6.92 6.59 -2.7 0 1 417.5523 662.4140
  Z
  M 415.41 662.70
  A 4.77 4.77 0.0 0 0 410.64 657.93
  A 4.77 4.77 0.0 0 0 405.87 662.70
  A 4.77 4.77 0.0 0 0 410.64 667.47
  A 4.77 4.77 0.0 0 0 415.41 662.70
  Z"
/>
<path fill="#707070" d="
  M 448.54 659.04
  Q 448.42 659.21 448.40 659.42
  Q 448.31 660.85 449.69 661.24
  L 453.73 662.39
  A 3.01 3.00 10.1 0 1 455.91 665.50
  C 455.54 670.44 449.67 669.67 446.62 667.77
  A 0.80 0.79 31.1 0 1 446.35 666.70
  L 446.57 666.31
  A 0.39 0.38 26.9 0 1 447.06 666.16
  Q 448.67 666.90 450.22 667.39
  Q 452.05 667.96 453.66 666.74
  Q 453.85 666.59 453.97 666.39
  Q 454.66 665.18 453.40 664.57
  Q 451.38 663.60 449.04 663.11
  Q 446.81 662.64 446.58 660.49
  C 446.07 655.62 451.97 655.42 454.95 657.37
  Q 455.74 657.89 455.13 658.62
  L 454.83 658.97
  A 0.34 0.34 0.0 0 1 454.40 659.05
  Q 452.85 658.21 451.34 657.93
  Q 449.62 657.60 448.54 659.04
  Z"
/>
<path fill="#707070" d="
  M 531.99 659.35
  Q 528.33 656.74 525.50 659.01
  C 522.07 661.76 523.88 668.27 528.85 667.31
  Q 530.61 666.97 532.58 666.06
  Q 532.99 665.87 533.15 666.29
  L 533.25 666.57
  A 1.01 1.00 -27.4 0 1 532.86 667.77
  C 528.51 670.65 522.61 669.28 521.71 663.74
  C 520.65 657.22 527.22 654.74 532.52 657.34
  Q 533.28 657.72 533.07 658.55
  L 532.95 659.00
  A 0.62 0.62 0.0 0 1 531.99 659.35
  Z"
/>
<path fill="#707070" d="
  M 544.90 657.92
  L 541.13 658.02
  A 0.34 0.34 0.0 0 1 540.79 657.70
  L 540.74 656.59
  A 0.34 0.34 0.0 0 1 541.08 656.23
  L 551.37 656.23
  A 0.34 0.34 0.0 0 1 551.71 656.61
  L 551.60 657.66
  A 0.34 0.34 0.0 0 1 551.27 657.96
  L 547.43 657.99
  A 0.34 0.34 0.0 0 0 547.09 658.33
  L 547.14 668.91
  A 0.34 0.34 0.0 0 1 546.83 669.25
  L 545.56 669.37
  A 0.34 0.34 0.0 0 1 545.19 669.03
  L 545.25 658.26
  A 0.34 0.34 0.0 0 0 544.90 657.92
  Z"
/>
<path fill="#707070" d="
  M 603.7800 662.7059
  A 6.91 6.64 -0.2 0 1 596.8932 669.3700
  A 6.91 6.64 -0.2 0 1 589.9600 662.7541
  A 6.91 6.64 -0.2 0 1 596.8468 656.0900
  A 6.91 6.64 -0.2 0 1 603.7800 662.7059
  Z
  M 601.65 662.69
  A 4.73 4.73 0.0 0 0 596.92 657.96
  A 4.73 4.73 0.0 0 0 592.19 662.69
  A 4.73 4.73 0.0 0 0 596.92 667.42
  A 4.73 4.73 0.0 0 0 601.65 662.69
  Z"
/>
<path fill="#707070" d="
  M 614.01 658.91
  Q 613.85 659.11 613.76 659.36
  Q 613.40 660.41 614.41 660.85
  Q 616.36 661.70 618.47 662.24
  C 621.72 663.06 622.39 667.40 619.19 668.73
  Q 615.83 670.12 611.97 667.67
  A 0.83 0.83 0.0 0 1 611.70 666.55
  L 611.85 666.30
  A 0.35 0.34 -61.1 0 1 612.31 666.16
  Q 616.58 668.36 618.82 666.96
  A 1.48 1.48 0.0 0 0 618.66 664.36
  C 616.33 663.27 610.88 663.26 612.06 659.04
  C 613.07 655.38 617.74 655.94 620.41 657.24
  Q 621.08 657.56 620.75 658.24
  L 620.57 658.61
  A 0.53 0.53 0.0 0 1 619.95 658.88
  L 616.52 657.84
  Q 615.20 657.45 614.01 658.91
  Z"
/>
<circle fill="#ffffff" cx="410.64" cy="662.70" r="4.77"/>
<path fill="#ffffff" d="
  M 484.49 658.83
  A 0.85 0.85 0.0 0 1 485.35 657.98
  L 487.81 658.00
  A 3.11 2.26 0.4 0 1 490.90 660.28
  L 490.90 660.48
  A 3.11 2.26 0.4 0 1 487.77 662.72
  L 485.31 662.70
  A 0.85 0.85 0.0 0 1 484.47 661.85
  L 484.49 658.83
  Z"
/>
<circle fill="#ffffff" cx="596.92" cy="662.69" r="4.73"/>
</svg>
